/* XPM */
static char *xpm_xpm[] = {
"32 32 4 1",
" 	c None",
"1	c #000000",
"2	c #000080",
"3	c #FFFFFF",
"                                ",
"                                ",
"                                ",
"                                ",
"                                ",
"                                ",
"            333333              ",
"           333333333            ",
"          33333333333           ",
"         33333   33333          ",
"        33333     3333          ",
"        33333     33333         ",
"        33333     33333         ",
"       33333      33333         ",
"       33333      33333         ",
"       33333      33333         ",
"       33333      33333         ",
"       33333      33333         ",
"       33333      33333         ",
"        33333     33333         ",
"        33333     33333         ",
"        33333     3333          ",
"         33333   33333          ",
"          33333333333           ",
"           333333333            ",
"            333333              ",
"                                ",
"                                ",
"                                ",
"                                ",
"                                ",
"                                "
};
