/* XPM */
static char *xpm_xpm[] = {
"32 32 4 1",
" 	c None",
"1	c #000000",
"2	c #000080",
"3	c #FFFFFF",
"                                ",
"                                ",
"                                ",
"                                ",
"                                ",
"                                ",
"         333333333333           ",
"         333333333333           ",
"         333333333333           ",
"         3333                   ",
"         3333                   ",
"         3333                   ",
"         3333333333             ",
"         33333333333            ",
"         333333333333           ",
"         3      333333          ",
"                 333333         ",
"                  33333         ",
"                  33333         ",
"                  33333         ",
"                  33333         ",
"                 33333          ",
"        33      333333          ",
"        3333333333333           ",
"        333333333333            ",
"          33333333              ",
"                                ",
"                                ",
"                                ",
"                                ",
"                                ",
"                                "
};
