/* XPM */
static char *Ball_xpm[] = {
"64 64 4 1",
" 	c None",
"1	c #000000",
"2	c #000080",
"3	c #FFFFFF",
"                                                                ",
"                                                                ",
"                                                                ",
"                                                                ",
"                           2222222222                           ",
"                       222233333333332222                       ",
"                     2233333333333333333322                     ",
"                   22333333333333333333333322                   ",
"                 223333333333333333333333333322                 ",
"                23333333333333333333333333333332                ",
"              223333333333333333333333333333333322              ",
"             23333333333333333333333333333333333332             ",
"            2333333333333333333333333333333333333332            ",
"           233333333333333333333333333333333333333332           ",
"          23333333333333333333333333333333333333333332          ",
"          23333333333333333333333333333333333333333332          ",
"         2333333333333333333333333333333333333333333332         ",
"        233333333333333333333333333333333333333333333332        ",
"        233333333333333333333333333333333333333333333332        ",
"       23333333333333333333333333333333333333333333333332       ",
"       23333333333333333333333333333333333333333333333332       ",
"      2333333333333333333333333333333333333333333333333332      ",
"      2333333333333333333333333333333333333333333333333332      ",
"     233333333333333333333333333333333333333333333333333332     ",
"     233333333333333333333333333333333333333333333333333332     ",
"     233333333333333333333333333333333333333333333333333332     ",
"     233333333333333333333333333333333333333333333333333332     ",
"    23333333333333333333333333333333333333333333333333333332    ",
"    23333333333333333333333333333333333333333333333333333332    ",
"    23333333333333333333333333333333333333333333333333333332    ",
"    23333333333333333333333333333333333333333333333333333332    ",
"    23333333333333333333333333333333333333333333333333333332    ",
"    23333333333333333333333333333333333333333333333333333332    ",
"    23333333333333333333333333333333333333333333333333333332    ",
"    23333333333333333333333333333333333333333333333333333332    ",
"    23333333333333333333333333333333333333333333333333333332    ",
"    23333333333333333333333333333333333333333333333333333332    ",
"     233333333333333333333333333333333333333333333333333332     ",
"     233333333333333333333333333333333333333333333333333332     ",
"     233333333333333333333333333333333333333333333333333332     ",
"     233333333333333333333333333333333333333333333333333332     ",
"      2333333333333333333333333333333333333333333333333332      ",
"      2333333333333333333333333333333333333333333333333332      ",
"       23333333333333333333333333333333333333333333333332       ",
"       23333333333333333333333333333333333333333333333332       ",
"        233333333333333333333333333333333333333333333332        ",
"        233333333333333333333333333333333333333333333332        ",
"         2333333333333333333333333333333333333333333332         ",
"          23333333333333333333333333333333333333333332          ",
"          23333333333333333333333333333333333333333332          ",
"           233333333333333333333333333333333333333332           ",
"            2333333333333333333333333333333333333332            ",
"             23333333333333333333333333333333333332             ",
"              223333333333333333333333333333333322              ",
"                23333333333333333333333333333332                ",
"                 223333333333333333333333333322                 ",
"                   22333333333333333333333322                   ",
"                     2233333333333333333322                     ",
"                       222233333333332222                       ",
"                           2222222222                           ",
"                                                                ",
"                                                                ",
"                                                                ",
"                                                                "
};
