/* XPM */
static char *Button_TwistDown_2_xpm[] = {
"128 64 4 1",
" 	c None",
"1	c #000000",
"2	c #000080",
"3	c #FFFFFF",
"                                                                                                                                ",
"                                                                                                                                ",
"                                                                                                                                ",
"                                                                                                                                ",
"                                                                                                                                ",
"                                                                                                                                ",
"                                                                                                                                ",
"                                                                                                                                ",
"            33333333333333333333333333333333333333333333333333333333333333333333333333333333333333333333333333333333            ",
"            33333333333333333333333333333333333333333333333333333333333333333333333333333333333333333333333333333333            ",
"          332222222222222222222222222222222222222222222222222222222222222222222222222222222222222222222222222222222233          ",
"          332222222222222222222222222222222222222222222222222222222222222222222222222222222222222222222222222222222233          ",
"        3322222222222222222222222222222222222222222222222222222222222222222222222222222222222222222222222222222222222233        ",
"        3322222222222222222222222222222222222222222222222222222222222222222222222222222222222222222222222222222222222233        ",
"        3322222222222222222222222222222222222222222222222222222222222222222222222222222222222222222222222222222222222233        ",
"        3322222222222222222222222222222222222222222222222222222222222222222222222222222222222222222222222222222222222233        ",
"        3322222222222222222222222222222222222222222222222222222222222222222222222222222222222222222222222222222222222233        ",
"        3322222222222222222222222222222222222222222222222222222222222222222222222222222222222222222222222222222222222233        ",
"        3322222222222222222222222222222222222222222222222222222222222222222222222222222222222222222222222222222222222233        ",
"        3322222222222222222222222222222222222222222222222222222222222222222222222222222222222222222222222222222222222233        ",
"        3322222222222222222222222222222222222222222222222222222222222222222222222222222222222222222222222222222222222233        ",
"        3322222233333333333333333323333322222233333222222233333222333333222222223333333322222333333333333333333222222233        ",
"        3322222233333333333333333323333322222233333322222233333222333333222222333333333333222333333333333333333222222233        ",
"        3322222233333333333333333323333322222233333322222233332222333333222223333333333333222333333333333333333222222233        ",
"        3322222222222223333322222222333322222233333322222333332222333333222233333322222333222222222233333222222222222233        ",
"        3322222222222223333322222222333332222333333322222333332222333333222233333222222223222222222233333222222222222233        ",
"        3322222222222223333322222222333332222333333332222333332222333333222233333222222222222222222233333222222222222233        ",
"        3322222222222223333322222222333332222333233332222333322222333333222233333222222222222222222233333222222222222233        ",
"        3322222222222223333322222222233332222333223332223333322222333333222233333332222222222222222233333222222222222233        ",
"        3322222222222223333322222222233333223333223332223333322222333333222233333333333222222222222233333222222222222233        ",
"        3322222222222223333322222222233333223333223333223333322222333333222223333333333332222222222233333222222222222233        ",
"        3322222222222223333322222222233333223333223333223333322222333333222222333333333333222222222233333222222222222233        ",
"        3322222222222223333322222222233333223332223333233333222222333333222222223333333333322222222233333222222222222233        ",
"        3322222222222223333322222222223333323332222333233333222222333333222222222222333333322222222233333222222222222233        ",
"        3322222222222223333322222222223333333332222333333333222222333333222222222222223333322222222233333222222222222233        ",
"        3322222222222223333322222222223333333332222333333333222222333333222222222222222333322222222233333222222222222233        ",
"        3322222222222223333322222222223333333322222333333332222222333333222232222222223333322222222233333222222222222233        ",
"        3322222222222223333322222222222333333322222233333332222222333333222233332222233333322222222233333222222222222233        ",
"        3322222222222223333322222222222333333322222233333332222222333333222233333333333333222222222233333222222222222233        ",
"        3322222222222223333322222222222333333322222233333332222222333333222233333333333332222222222233333222222222222233        ",
"        3322222222222223333322222222222333333222222233333322222222333333222222233333333222222222222233333222222222222233        ",
"        3322222222222222222222222222222222222222222222222222222222222222222222222222222222222222222222222222222222222233        ",
"        3322222222222222222222222222222222222222222222222222222222222222222222222222222222222222222222222222222222222233        ",
"        3322222222222222222222222222222222222222222222222222222222222222222222222222222222222222222222222222222222222233        ",
"        3322222222222222222222222222222222222222222222222222222222222222222222222222222222222222222222222222222222222233        ",
"        3322222222222222222222222222222222222222222222222222222222222222222222222222222222222222222222222222222222222233        ",
"        3322222222222222222222222222222222222222222222222222222222222222222222222222222222222222222222222222222222222233        ",
"        3322222222222222222222222222222222222222222222222222222222222222222222222222222222222222222222222222222222222233        ",
"        3322222222222222222222222222222222222222222222222222222222222222222222222222222222222222222222222222222222222233        ",
"        3322222222222222222222222222222222222222222222222222222222222222222222222222222222222222222222222222222222222233        ",
"        3322222222222222222222222222222222222222222222222222222222222222222222222222222222222222222222222222222222222233        ",
"        3322222222222222222222222222222222222222222222222222222222222222222222222222222222222222222222222222222222222233        ",
"          332222222222222222222222222222222222222222222222222222222222222222222222222222222222222222222222222222222233          ",
"          332222222222222222222222222222222222222222222222222222222222222222222222222222222222222222222222222222222233          ",
"            33333333333333333333333333333333333333333333333333333333333333333333333333333333333333333333333333333333            ",
"            33333333333333333333333333333333333333333333333333333333333333333333333333333333333333333333333333333333            ",
"                                                                                                                                ",
"                                                                                                                                ",
"                                                                                                                                ",
"                                                                                                                                ",
"                                                                                                                                ",
"                                                                                                                                ",
"                                                                                                                                ",
"                                                                                                                                "
};
