/* XPM */
static char *Button_LastDown_2_xpm[] = {
"128 64 4 1",
" 	c None",
"1	c #000000",
"2	c #000080",
"3	c #FFFFFF",
"                                                                                                                                ",
"                                                                                                                                ",
"                                                                                                                                ",
"                                                                                                                                ",
"                                                                                                                                ",
"                                                                                                                                ",
"                                                                                                                                ",
"                                                                                                                                ",
"            33333333333333333333333333333333333333333333333333333333333333333333333333333333333333333333333333333333            ",
"            33333333333333333333333333333333333333333333333333333333333333333333333333333333333333333333333333333333            ",
"          332222222222222222222222222222222222222222222222222222222222222222222222222222222222222222222222222222222233          ",
"          332222222222222222222222222222222222222222222222222222222222222222222222222222222222222222222222222222222233          ",
"        3322222222222222222222222222222222222222222222222222222222222222222222222222222222222222222222222222222222222233        ",
"        3322222222222222222222222222222222222222222222222222222222222222222222222222222222222222222222222222222222222233        ",
"        3322222222222222222222222222222222222222222222222222222222222222222222222222222222222222222222222222222222222233        ",
"        3322222222222222222222222222222222222222222222222222222222222222222222222222222222222222222222222222222222222233        ",
"        3322222222222222222222222222222222222222222222222222222222222222222222222222222222222222222222222222222222222233        ",
"        3322222222222222222222222222222222222222222222222222222222222222222222222222222222222222222222222222222222222233        ",
"        3322222222222222222222222222222222222222222222222222222222222222222222222222222222222222222222222222222222222233        ",
"        3322222222222222222222222222222222222222222222222222222222222222222222222222222222222222222222222222222222222233        ",
"        3322222222222222222222222222222222222222222222222222222222222222222222222222222222222222222222222222222222222233        ",
"        3322222222222222222233333322222222222222223333333222222222222233333333222223333333333333333332222222222222222233        ",
"        3322222222222222222233333322222222222222223333333222222222223333333333332223333333333333333332222222222222222233        ",
"        3322222222222222222233333322222222222222223333333222222222233333333333332223333333333333333332222222222222222233        ",
"        3322222222222222222233333322222222222222233333333322222222333333222223332222222222333332222222222222222222222233        ",
"        3322222222222222222233333322222222222222233333333322222222333332222222232222222222333332222222222222222222222233        ",
"        3322222222222222222233333322222222222222333333333322222222333332222222222222222222333332222222222222222222222233        ",
"        3322222222222222222233333322222222222222333332333332222222333332222222222222222222333332222222222222222222222233        ",
"        3322222222222222222233333322222222222222333332333332222222333333322222222222222222333332222222222222222222222233        ",
"        3322222222222222222233333322222222222223333322233333222222333333333332222222222222333332222222222222222222222233        ",
"        3322222222222222222233333322222222222223333322233333222222233333333333322222222222333332222222222222222222222233        ",
"        3322222222222222222233333322222222222223333322233333222222223333333333332222222222333332222222222222222222222233        ",
"        3322222222222222222233333322222222222233333222223333322222222233333333333222222222333332222222222222222222222233        ",
"        3322222222222222222233333322222222222233333222223333322222222222223333333222222222333332222222222222222222222233        ",
"        3322222222222222222233333322222222222333333333333333322222222222222233333222222222333332222222222222222222222233        ",
"        3322222222222222222233333322222222222333333333333333332222222222222223333222222222333332222222222222222222222233        ",
"        3322222222222222222233333322222222222333333333333333332222322222222233333222222222333332222222222222222222222233        ",
"        3322222222222222222233333322222222223333322222222233332222333322222333333222222222333332222222222222222222222233        ",
"        3322222222222222222233333333333333223333322222222233333222333333333333332222222222333332222222222222222222222233        ",
"        3322222222222222222233333333333333223333322222222233333222333333333333322222222222333332222222222222222222222233        ",
"        3322222222222222222233333333333333233333222222222223333322222333333332222222222222333332222222222222222222222233        ",
"        3322222222222222222222222222222222222222222222222222222222222222222222222222222222222222222222222222222222222233        ",
"        3322222222222222222222222222222222222222222222222222222222222222222222222222222222222222222222222222222222222233        ",
"        3322222222222222222222222222222222222222222222222222222222222222222222222222222222222222222222222222222222222233        ",
"        3322222222222222222222222222222222222222222222222222222222222222222222222222222222222222222222222222222222222233        ",
"        3322222222222222222222222222222222222222222222222222222222222222222222222222222222222222222222222222222222222233        ",
"        3322222222222222222222222222222222222222222222222222222222222222222222222222222222222222222222222222222222222233        ",
"        3322222222222222222222222222222222222222222222222222222222222222222222222222222222222222222222222222222222222233        ",
"        3322222222222222222222222222222222222222222222222222222222222222222222222222222222222222222222222222222222222233        ",
"        3322222222222222222222222222222222222222222222222222222222222222222222222222222222222222222222222222222222222233        ",
"        3322222222222222222222222222222222222222222222222222222222222222222222222222222222222222222222222222222222222233        ",
"        3322222222222222222222222222222222222222222222222222222222222222222222222222222222222222222222222222222222222233        ",
"          332222222222222222222222222222222222222222222222222222222222222222222222222222222222222222222222222222222233          ",
"          332222222222222222222222222222222222222222222222222222222222222222222222222222222222222222222222222222222233          ",
"            33333333333333333333333333333333333333333333333333333333333333333333333333333333333333333333333333333333            ",
"            33333333333333333333333333333333333333333333333333333333333333333333333333333333333333333333333333333333            ",
"                                                                                                                                ",
"                                                                                                                                ",
"                                                                                                                                ",
"                                                                                                                                ",
"                                                                                                                                ",
"                                                                                                                                ",
"                                                                                                                                ",
"                                                                                                                                "
};
