/* XPM */
static char *Button_LastWord_xpm[] = {
"64 32 4 1",
" 	c None",
"1	c #000000",
"2	c #000080",
"3	c #FFFFFF",
"    33333333333333333333333333333333333333333333333333333333    ",
"    33333333333333333333333333333333333333333333333333333333    ",
"  333333333333333333333333333333333333333333333333333333333333  ",
"  333333333333333333333333333333333333333333333333333333333333  ",
"3333333333333222333333333222333333322222332222222223333333333333",
"3333333333333222333333332222233332223332333332223333333333333333",
"3333333333333222333333332222233332233333333332223333333333333333",
"3333333333333222333333332232233332223333333332223333333333333333",
"3333333333333222333333322232223332222222333332223333333333333333",
"3333333333333222333333322333223333222222233332223333333333333333",
"3333333333333222333333222222223333333222233332223333333333333333",
"3333333333333222333333223333322333333322233332223333333333333333",
"3333333333333222333333223333322332333322233332223333333333333333",
"3333333333333222222222223333322232222222333332223333333333333333",
"3333333333333333333333333333333333333333333333333333333333333333",
"3333333333333333333333333333333333333333333333333333333333333333",
"3333333333333333333333333333333333333333333333333333333333333333",
"3333333333333333333333333333333333333333333333333333333333333333",
"3333333322333222333222333222222333322222223333222222233333333333",
"3333333322333222333222332223322233322233222333222333223333333333",
"3333333322233222233223322233332223322233322333222333322333333333",
"3333333322233232233223322233332223322233322333222333322233333333",
"3333333332232232232223322333332223322233222333222333322233333333",
"3333333332232232232223322333332223322222223333222333322233333333",
"3333333332222233222233322233332223322233222333222333322233333333",
"3333333332222333222233322233332223322233322333222333322333333333",
"3333333332222333222233332223322233322233322233222333223333333333",
"3333333333222333222233333222222333322233322233222222233333333333",
"  333333333333333333333333333333333333333333333333333333333333  ",
"  333333333333333333333333333333333333333333333333333333333333  ",
"    33333333333333333333333333333333333333333333333333333333    ",
"    33333333333333333333333333333333333333333333333333333333    "
};
