/* XPM */
static char *Enter_xpm[] = {
"64 32 4 1",
" 	c None",
"1	c #000000",
"2	c #000080",
"3	c #FFFFFF",
"    33333333333333333333333333333333333333333333333333333333    ",
"    33333333333333333333333333333333333333333333333333333333    ",
"  333333333333333333333333333333333333333333333333333333333333  ",
"  333333333333333333333333333333333333333333333333333333333333  ",
"3333333333333333333333333333333333333333333333333333333333333333",
"3333333333333333333333333333333333333333333333333333333333333333",
"3333333333333333333333333333333333333333333333333333333333333333",
"3333333333333333333333333333333333333333333333333333333333333333",
"3333333333333333333333333333333333333333333333333333333333333333",
"3333333333333333333333333333333333333333333333333333333333333333",
"3333332222222333222333322332222222223322222223332222222333333333",
"3333332223333333222233322333332223333322233333332223322233333333",
"3333332223333333222223322333332223333322233333332223332233333333",
"3333332223333333222223322333332223333322233333332223332233333333",
"3333332222222333222322322333332223333322222223332223322233333333",
"3333332223333333222322322333332223333322233333332222222333333333",
"3333332223333333222332222333332223333322233333332223322233333333",
"3333332223333333222332222333332223333322233333332223332233333333",
"3333332223333333222333222333332223333322233333332223332223333333",
"3333332222222233222333222333332223333322222222332223332223333333",
"3333333333333333333333333333333333333333333333333333333333333333",
"3333333333333333333333333333333333333333333333333333333333333333",
"3333333333333333333333333333333333333333333333333333333333333333",
"3333333333333333333333333333333333333333333333333333333333333333",
"3333333333333333333333333333333333333333333333333333333333333333",
"3333333333333333333333333333333333333333333333333333333333333333",
"3333333333333333333333333333333333333333333333333333333333333333",
"3333333333333333333333333333333333333333333333333333333333333333",
"  333333333333333333333333333333333333333333333333333333333333  ",
"  333333333333333333333333333333333333333333333333333333333333  ",
"    33333333333333333333333333333333333333333333333333333333    ",
"    33333333333333333333333333333333333333333333333333333333    "
};
