/* XPM */
static char *Button_Clear_2_xpm[] = {
"128 64 4 1",
" 	c None",
"1	c #000000",
"2	c #000080",
"3	c #FFFFFF",
"                                                                                                                                ",
"                                                                                                                                ",
"                                                                                                                                ",
"                                                                                                                                ",
"                                                                                                                                ",
"                                                                                                                                ",
"                                                                                                                                ",
"                                                                                                                                ",
"            33333333333333333333333333333333333333333333333333333333333333333333333333333333333333333333333333333333            ",
"            33333333333333333333333333333333333333333333333333333333333333333333333333333333333333333333333333333333            ",
"          333333333333333333333333333333333333333333333333333333333333333333333333333333333333333333333333333333333333          ",
"          333333333333333333333333333333333333333333333333333333333333333333333333333333333333333333333333333333333333          ",
"        3333333333333333333333333333333333333333333333333333333333333333333333333333333333333333333333333333333333333333        ",
"        3333333333333333333333333333333333333333333333333333333333333333333333333333333333333333333333333333333333333333        ",
"        3333333333333333333333333333333333333333333333333333333333333333333333333333333333333333333333333333333333333333        ",
"        3333333333333333333333333333333333333333333333333333333333333333333333333333333333333333333333333333333333333333        ",
"        3333333333333333333333333333333333333333333333333333333333333333333333333333333333333333333333333333333333333333        ",
"        3333333333333333333333333333333333333333333333333333333333333333333333333333333333333333333333333333333333333333        ",
"        3333333333333333333333333333333333333333333333333333333333333333333333333333333333333333333333333333333333333333        ",
"        3333333333333333333333333333333333333333333333333333333333333333333333333333333333333333333333333333333333333333        ",
"        3333333333333333333333333333333333333333333333333333333333333333333333333333333333333333333333333333333333333333        ",
"        3333333333333332222222233333322222233333333333222222222222223333333332222222333333333222222222222333333333333333        ",
"        3333333333333222222222222333322222233333333333222222222222223333333332222222333333333222222222222223333333333333        ",
"        3333333333332222222222222333322222233333333333222222222222223333333332222222333333333222222222222222333333333333        ",
"        3333333333322222233333222333322222233333333333222222333333333333333322222222233333333222222333322222333333333333        ",
"        3333333333222222333333332333322222233333333333222222333333333333333322222222233333333222222333322222233333333333        ",
"        3333333332222223333333333333322222233333333333222222333333333333333222222222233333333222222333332222233333333333        ",
"        3333333332222233333333333333322222233333333333222222333333333333333222223222223333333222222333332222233333333333        ",
"        3333333332222233333333333333322222233333333333222222333333333333333222223222223333333222222333322222333333333333        ",
"        3333333322222233333333333333322222233333333333222222222222223333332222233322222333333222222333322222333333333333        ",
"        3333333322222233333333333333322222233333333333222222222222223333332222233322222333333222222222222223333333333333        ",
"        3333333322222233333333333333322222233333333333222222222222223333332222233322222333333222222222222233333333333333        ",
"        3333333322222233333333333333322222233333333333222222333333333333322222333332222233333222222222222223333333333333        ",
"        3333333332222233333333333333322222233333333333222222333333333333322222333332222233333222222333222222333333333333        ",
"        3333333332222233333333333333322222233333333333222222333333333333222222222222222233333222222333322222333333333333        ",
"        3333333332222223333333333333322222233333333333222222333333333333222222222222222223333222222333322222233333333333        ",
"        3333333333222222333333332333322222233333333333222222333333333333222222222222222223333222222333332222233333333333        ",
"        3333333333322222233333222333322222233333333333222222333333333332222233333333322223333222222333332222223333333333        ",
"        3333333333322222222222222333322222222222222333222222222222223332222233333333322222333222222333333222223333333333        ",
"        3333333333333222222222222333322222222222222333222222222222223332222233333333322222333222222333333222222333333333        ",
"        3333333333333332222222233333322222222222222333222222222222223322222333333333332222233222222333333322222333333333        ",
"        3333333333333333333333333333333333333333333333333333333333333333333333333333333333333333333333333333333333333333        ",
"        3333333333333333333333333333333333333333333333333333333333333333333333333333333333333333333333333333333333333333        ",
"        3333333333333333333333333333333333333333333333333333333333333333333333333333333333333333333333333333333333333333        ",
"        3333333333333333333333333333333333333333333333333333333333333333333333333333333333333333333333333333333333333333        ",
"        3333333333333333333333333333333333333333333333333333333333333333333333333333333333333333333333333333333333333333        ",
"        3333333333333333333333333333333333333333333333333333333333333333333333333333333333333333333333333333333333333333        ",
"        3333333333333333333333333333333333333333333333333333333333333333333333333333333333333333333333333333333333333333        ",
"        3333333333333333333333333333333333333333333333333333333333333333333333333333333333333333333333333333333333333333        ",
"        3333333333333333333333333333333333333333333333333333333333333333333333333333333333333333333333333333333333333333        ",
"        3333333333333333333333333333333333333333333333333333333333333333333333333333333333333333333333333333333333333333        ",
"        3333333333333333333333333333333333333333333333333333333333333333333333333333333333333333333333333333333333333333        ",
"          333333333333333333333333333333333333333333333333333333333333333333333333333333333333333333333333333333333333          ",
"          333333333333333333333333333333333333333333333333333333333333333333333333333333333333333333333333333333333333          ",
"            33333333333333333333333333333333333333333333333333333333333333333333333333333333333333333333333333333333            ",
"            33333333333333333333333333333333333333333333333333333333333333333333333333333333333333333333333333333333            ",
"                                                                                                                                ",
"                                                                                                                                ",
"                                                                                                                                ",
"                                                                                                                                ",
"                                                                                                                                ",
"                                                                                                                                ",
"                                                                                                                                ",
"                                                                                                                                "
};
