/* XPM */
static char *Twist_xpm[] = {
"64 32 4 1",
" 	c None",
"1	c #000000",
"2	c #000080",
"3	c #FFFFFF",
"    33333333333333333333333333333333333333333333333333333333    ",
"    33333333333333333333333333333333333333333333333333333333    ",
"  333333333333333333333333333333333333333333333333333333333333  ",
"  333333333333333333333333333333333333333333333333333333333333  ",
"3333333333333333333333333333333333333333333333333333333333333333",
"3333333333333333333333333333333333333333333333333333333333333333",
"3333333333333333333333333333333333333333333333333333333333333333",
"3333333333333333333333333333333333333333333333333333333333333333",
"3333333333333333333333333333333333333333333333333333333333333333",
"3333333333333333333333333333333333333333333333333333333333333333",
"3333333222222222332233322233322232223333222223322222222233333333",
"3333333333222333332233322233322232223322233323333322233333333333",
"3333333333222333332223322223322332223322333333333322233333333333",
"3333333333222333332223323223322332223322233333333322233333333333",
"3333333333222333333223223223222332223322222223333322233333333333",
"3333333333222333333223223223222332223332222222333322233333333333",
"3333333333222333333222223322223332223333332222333322233333333333",
"3333333333222333333222233322223332223333333222333322233333333333",
"3333333333222333333222233322223332223323333222333322233333333333",
"3333333333222333333322233322223332223322222223333322233333333333",
"3333333333333333333333333333333333333333333333333333333333333333",
"3333333333333333333333333333333333333333333333333333333333333333",
"3333333333333333333333333333333333333333333333333333333333333333",
"3333333333333333333333333333333333333333333333333333333333333333",
"3333333333333333333333333333333333333333333333333333333333333333",
"3333333333333333333333333333333333333333333333333333333333333333",
"3333333333333333333333333333333333333333333333333333333333333333",
"3333333333333333333333333333333333333333333333333333333333333333",
"  333333333333333333333333333333333333333333333333333333333333  ",
"  333333333333333333333333333333333333333333333333333333333333  ",
"    33333333333333333333333333333333333333333333333333333333    ",
"    33333333333333333333333333333333333333333333333333333333    "
};
