/* XPM */
static char *Button_ClearDown_2_xpm[] = {
"128 64 4 1",
" 	c None",
"1	c #000000",
"2	c #000080",
"3	c #FFFFFF",
"                                                                                                                                ",
"                                                                                                                                ",
"                                                                                                                                ",
"                                                                                                                                ",
"                                                                                                                                ",
"                                                                                                                                ",
"                                                                                                                                ",
"                                                                                                                                ",
"            33333333333333333333333333333333333333333333333333333333333333333333333333333333333333333333333333333333            ",
"            33333333333333333333333333333333333333333333333333333333333333333333333333333333333333333333333333333333            ",
"          332222222222222222222222222222222222222222222222222222222222222222222222222222222222222222222222222222222233          ",
"          332222222222222222222222222222222222222222222222222222222222222222222222222222222222222222222222222222222233          ",
"        3322222222222222222222222222222222222222222222222222222222222222222222222222222222222222222222222222222222222233        ",
"        3322222222222222222222222222222222222222222222222222222222222222222222222222222222222222222222222222222222222233        ",
"        3322222222222222222222222222222222222222222222222222222222222222222222222222222222222222222222222222222222222233        ",
"        3322222222222222222222222222222222222222222222222222222222222222222222222222222222222222222222222222222222222233        ",
"        3322222222222222222222222222222222222222222222222222222222222222222222222222222222222222222222222222222222222233        ",
"        3322222222222222222222222222222222222222222222222222222222222222222222222222222222222222222222222222222222222233        ",
"        3322222222222222222222222222222222222222222222222222222222222222222222222222222222222222222222222222222222222233        ",
"        3322222222222222222222222222222222222222222222222222222222222222222222222222222222222222222222222222222222222233        ",
"        3322222222222222222222222222222222222222222222222222222222222222222222222222222222222222222222222222222222222233        ",
"        3322222222222223333333322222233333322222222222333333333333332222222223333333222222222333333333333222222222222233        ",
"        3322222222222333333333333222233333322222222222333333333333332222222223333333222222222333333333333332222222222233        ",
"        3322222222223333333333333222233333322222222222333333333333332222222223333333222222222333333333333333222222222233        ",
"        3322222222233333322222333222233333322222222222333333222222222222222233333333322222222333333222233333222222222233        ",
"        3322222222333333222222223222233333322222222222333333222222222222222233333333322222222333333222233333322222222233        ",
"        3322222223333332222222222222233333322222222222333333222222222222222333333333322222222333333222223333322222222233        ",
"        3322222223333322222222222222233333322222222222333333222222222222222333332333332222222333333222223333322222222233        ",
"        3322222223333322222222222222233333322222222222333333222222222222222333332333332222222333333222233333222222222233        ",
"        3322222233333322222222222222233333322222222222333333333333332222223333322233333222222333333222233333222222222233        ",
"        3322222233333322222222222222233333322222222222333333333333332222223333322233333222222333333333333332222222222233        ",
"        3322222233333322222222222222233333322222222222333333333333332222223333322233333222222333333333333322222222222233        ",
"        3322222233333322222222222222233333322222222222333333222222222222233333222223333322222333333333333332222222222233        ",
"        3322222223333322222222222222233333322222222222333333222222222222233333222223333322222333333222333333222222222233        ",
"        3322222223333322222222222222233333322222222222333333222222222222333333333333333322222333333222233333222222222233        ",
"        3322222223333332222222222222233333322222222222333333222222222222333333333333333332222333333222233333322222222233        ",
"        3322222222333333222222223222233333322222222222333333222222222222333333333333333332222333333222223333322222222233        ",
"        3322222222233333322222333222233333322222222222333333222222222223333322222222233332222333333222223333332222222233        ",
"        3322222222233333333333333222233333333333333222333333333333332223333322222222233333222333333222222333332222222233        ",
"        3322222222222333333333333222233333333333333222333333333333332223333322222222233333222333333222222333333222222233        ",
"        3322222222222223333333322222233333333333333222333333333333332233333222222222223333322333333222222233333222222233        ",
"        3322222222222222222222222222222222222222222222222222222222222222222222222222222222222222222222222222222222222233        ",
"        3322222222222222222222222222222222222222222222222222222222222222222222222222222222222222222222222222222222222233        ",
"        3322222222222222222222222222222222222222222222222222222222222222222222222222222222222222222222222222222222222233        ",
"        3322222222222222222222222222222222222222222222222222222222222222222222222222222222222222222222222222222222222233        ",
"        3322222222222222222222222222222222222222222222222222222222222222222222222222222222222222222222222222222222222233        ",
"        3322222222222222222222222222222222222222222222222222222222222222222222222222222222222222222222222222222222222233        ",
"        3322222222222222222222222222222222222222222222222222222222222222222222222222222222222222222222222222222222222233        ",
"        3322222222222222222222222222222222222222222222222222222222222222222222222222222222222222222222222222222222222233        ",
"        3322222222222222222222222222222222222222222222222222222222222222222222222222222222222222222222222222222222222233        ",
"        3322222222222222222222222222222222222222222222222222222222222222222222222222222222222222222222222222222222222233        ",
"        3322222222222222222222222222222222222222222222222222222222222222222222222222222222222222222222222222222222222233        ",
"          332222222222222222222222222222222222222222222222222222222222222222222222222222222222222222222222222222222233          ",
"          332222222222222222222222222222222222222222222222222222222222222222222222222222222222222222222222222222222233          ",
"            33333333333333333333333333333333333333333333333333333333333333333333333333333333333333333333333333333333            ",
"            33333333333333333333333333333333333333333333333333333333333333333333333333333333333333333333333333333333            ",
"                                                                                                                                ",
"                                                                                                                                ",
"                                                                                                                                ",
"                                                                                                                                ",
"                                                                                                                                ",
"                                                                                                                                ",
"                                                                                                                                ",
"                                                                                                                                "
};
