/* XPM */
static char *ButtonDown_xpm[] = {
"64 32 4 1",
" 	c None",
"1	c #000000",
"2	c #000080",
"3	c #FFFFFF",
"    33333333333333333333333333333333333333333333333333333333    ",
"    33333333333333333333333333333333333333333333333333333333    ",
"  332222222222222222222222222222222222222222222222222222222233  ",
"  332222222222222222222222222222222222222222222222222222222233  ",
"3322222222222222222222222222222222222222222222222222222222222233",
"3322222222222222222222222222222222222222222222222222222222222233",
"3322222222222222222222222222222222222222222222222222222222222233",
"3322222222222222222222222222222222222222222222222222222222222233",
"3322222222222222222222222222222222222222222222222222222222222233",
"3322222222222222222222222222222222222222222222222222222222222233",
"3322222222222222222222222222222222222222222222222222222222222233",
"3322222222222222222222222222222222222222222222222222222222222233",
"3322222222222222222222222222222222222222222222222222222222222233",
"3322222222222222222222222222222222222222222222222222222222222233",
"3322222222222222222222222222222222222222222222222222222222222233",
"3322222222222222222222222222222222222222222222222222222222222233",
"3322222222222222222222222222222222222222222222222222222222222233",
"3322222222222222222222222222222222222222222222222222222222222233",
"3322222222222222222222222222222222222222222222222222222222222233",
"3322222222222222222222222222222222222222222222222222222222222233",
"3322222222222222222222222222222222222222222222222222222222222233",
"3322222222222222222222222222222222222222222222222222222222222233",
"3322222222222222222222222222222222222222222222222222222222222233",
"3322222222222222222222222222222222222222222222222222222222222233",
"3322222222222222222222222222222222222222222222222222222222222233",
"3322222222222222222222222222222222222222222222222222222222222233",
"3322222222222222222222222222222222222222222222222222222222222233",
"3322222222222222222222222222222222222222222222222222222222222233",
"  332222222222222222222222222222222222222222222222222222222233  ",
"  332222222222222222222222222222222222222222222222222222222233  ",
"    33333333333333333333333333333333333333333333333333333333    ",
"    33333333333333333333333333333333333333333333333333333333    "
};
