/* XPM */
static char *ButtonDown_Enter_xpm[] = {
"64 32 4 1",
" 	c None",
"1	c #000000",
"2	c #000080",
"3	c #FFFFFF",
"    33333333333333333333333333333333333333333333333333333333    ",
"    33333333333333333333333333333333333333333333333333333333    ",
"  332222222222222222222222222222222222222222222222222222222233  ",
"  332222222222222222222222222222222222222222222222222222222233  ",
"3322222222222222222222222222222222222222222222222222222222222233",
"3322222222222222222222222222222222222222222222222222222222222233",
"3322222222222222222222222222222222222222222222222222222222222233",
"3322222222222222222222222222222222222222222222222222222222222233",
"3322222222222222222222222222222222222222222222222222222222222233",
"3322222222222222222222222222222222222222222222222222222222222233",
"3322223333333222333222233223333333332233333332223333333222222233",
"3322223332222222333322233222223332222233322222223332233322222233",
"3322223332222222333332233222223332222233322222223332223322222233",
"3322223332222222333332233222223332222233322222223332223322222233",
"3322223333333222333233233222223332222233333332223332233322222233",
"3322223332222222333233233222223332222233322222223333333222222233",
"3322223332222222333223333222223332222233322222223332233322222233",
"3322223332222222333223333222223332222233322222223332223322222233",
"3322223332222222333222333222223332222233322222223332223332222233",
"3322223333333322333222333222223332222233333333223332223332222233",
"3322222222222222222222222222222222222222222222222222222222222233",
"3322222222222222222222222222222222222222222222222222222222222233",
"3322222222222222222222222222222222222222222222222222222222222233",
"3322222222222222222222222222222222222222222222222222222222222233",
"3322222222222222222222222222222222222222222222222222222222222233",
"3322222222222222222222222222222222222222222222222222222222222233",
"3322222222222222222222222222222222222222222222222222222222222233",
"3322222222222222222222222222222222222222222222222222222222222233",
"  332222222222222222222222222222222222222222222222222222222233  ",
"  332222222222222222222222222222222222222222222222222222222233  ",
"    33333333333333333333333333333333333333333333333333333333    ",
"    33333333333333333333333333333333333333333333333333333333    "
};
