/* XPM */
static char *Button_Last_2_xpm[] = {
"128 64 4 1",
" 	c None",
"1	c #000000",
"2	c #000080",
"3	c #FFFFFF",
"                                                                                                                                ",
"                                                                                                                                ",
"                                                                                                                                ",
"                                                                                                                                ",
"                                                                                                                                ",
"                                                                                                                                ",
"                                                                                                                                ",
"                                                                                                                                ",
"            33333333333333333333333333333333333333333333333333333333333333333333333333333333333333333333333333333333            ",
"            33333333333333333333333333333333333333333333333333333333333333333333333333333333333333333333333333333333            ",
"          333333333333333333333333333333333333333333333333333333333333333333333333333333333333333333333333333333333333          ",
"          333333333333333333333333333333333333333333333333333333333333333333333333333333333333333333333333333333333333          ",
"        3333333333333333333333333333333333333333333333333333333333333333333333333333333333333333333333333333333333333333        ",
"        3333333333333333333333333333333333333333333333333333333333333333333333333333333333333333333333333333333333333333        ",
"        3333333333333333333333333333333333333333333333333333333333333333333333333333333333333333333333333333333333333333        ",
"        3333333333333333333333333333333333333333333333333333333333333333333333333333333333333333333333333333333333333333        ",
"        3333333333333333333333333333333333333333333333333333333333333333333333333333333333333333333333333333333333333333        ",
"        3333333333333333333333333333333333333333333333333333333333333333333333333333333333333333333333333333333333333333        ",
"        3333333333333333333333333333333333333333333333333333333333333333333333333333333333333333333333333333333333333333        ",
"        3333333333333333333333333333333333333333333333333333333333333333333333333333333333333333333333333333333333333333        ",
"        3333333333333333333333333333333333333333333333333333333333333333333333333333333333333333333333333333333333333333        ",
"        3333333333333333333322222233333333333333332222222333333333333322222222333332222222222222222223333333333333333333        ",
"        3333333333333333333322222233333333333333332222222333333333332222222222223332222222222222222223333333333333333333        ",
"        3333333333333333333322222233333333333333332222222333333333322222222222223332222222222222222223333333333333333333        ",
"        3333333333333333333322222233333333333333322222222233333333222222333332223333333333222223333333333333333333333333        ",
"        3333333333333333333322222233333333333333322222222233333333222223333333323333333333222223333333333333333333333333        ",
"        3333333333333333333322222233333333333333222222222233333333222223333333333333333333222223333333333333333333333333        ",
"        3333333333333333333322222233333333333333222223222223333333222223333333333333333333222223333333333333333333333333        ",
"        3333333333333333333322222233333333333333222223222223333333222222233333333333333333222223333333333333333333333333        ",
"        3333333333333333333322222233333333333332222233322222333333222222222223333333333333222223333333333333333333333333        ",
"        3333333333333333333322222233333333333332222233322222333333322222222222233333333333222223333333333333333333333333        ",
"        3333333333333333333322222233333333333332222233322222333333332222222222223333333333222223333333333333333333333333        ",
"        3333333333333333333322222233333333333322222333332222233333333322222222222333333333222223333333333333333333333333        ",
"        3333333333333333333322222233333333333322222333332222233333333333332222222333333333222223333333333333333333333333        ",
"        3333333333333333333322222233333333333222222222222222233333333333333322222333333333222223333333333333333333333333        ",
"        3333333333333333333322222233333333333222222222222222223333333333333332222333333333222223333333333333333333333333        ",
"        3333333333333333333322222233333333333222222222222222223333233333333322222333333333222223333333333333333333333333        ",
"        3333333333333333333322222233333333332222233333333322223333222233333222222333333333222223333333333333333333333333        ",
"        3333333333333333333322222222222222332222233333333322222333222222222222223333333333222223333333333333333333333333        ",
"        3333333333333333333322222222222222332222233333333322222333222222222222233333333333222223333333333333333333333333        ",
"        3333333333333333333322222222222222322222333333333332222233333222222223333333333333222223333333333333333333333333        ",
"        3333333333333333333333333333333333333333333333333333333333333333333333333333333333333333333333333333333333333333        ",
"        3333333333333333333333333333333333333333333333333333333333333333333333333333333333333333333333333333333333333333        ",
"        3333333333333333333333333333333333333333333333333333333333333333333333333333333333333333333333333333333333333333        ",
"        3333333333333333333333333333333333333333333333333333333333333333333333333333333333333333333333333333333333333333        ",
"        3333333333333333333333333333333333333333333333333333333333333333333333333333333333333333333333333333333333333333        ",
"        3333333333333333333333333333333333333333333333333333333333333333333333333333333333333333333333333333333333333333        ",
"        3333333333333333333333333333333333333333333333333333333333333333333333333333333333333333333333333333333333333333        ",
"        3333333333333333333333333333333333333333333333333333333333333333333333333333333333333333333333333333333333333333        ",
"        3333333333333333333333333333333333333333333333333333333333333333333333333333333333333333333333333333333333333333        ",
"        3333333333333333333333333333333333333333333333333333333333333333333333333333333333333333333333333333333333333333        ",
"        3333333333333333333333333333333333333333333333333333333333333333333333333333333333333333333333333333333333333333        ",
"          333333333333333333333333333333333333333333333333333333333333333333333333333333333333333333333333333333333333          ",
"          333333333333333333333333333333333333333333333333333333333333333333333333333333333333333333333333333333333333          ",
"            33333333333333333333333333333333333333333333333333333333333333333333333333333333333333333333333333333333            ",
"            33333333333333333333333333333333333333333333333333333333333333333333333333333333333333333333333333333333            ",
"                                                                                                                                ",
"                                                                                                                                ",
"                                                                                                                                ",
"                                                                                                                                ",
"                                                                                                                                ",
"                                                                                                                                ",
"                                                                                                                                ",
"                                                                                                                                "
};
