/* XPM */
static char *ButtonDown_Twist_xpm[] = {
"64 32 4 1",
" 	c None",
"1	c #000000",
"2	c #000080",
"3	c #FFFFFF",
"    33333333333333333333333333333333333333333333333333333333    ",
"    33333333333333333333333333333333333333333333333333333333    ",
"  332222222222222222222222222222222222222222222222222222222233  ",
"  332222222222222222222222222222222222222222222222222222222233  ",
"3322222222222222222222222222222222222222222222222222222222222233",
"3322222222222222222222222222222222222222222222222222222222222233",
"3322222222222222222222222222222222222222222222222222222222222233",
"3322222222222222222222222222222222222222222222222222222222222233",
"3322222222222222222222222222222222222222222222222222222222222233",
"3322222222222222222222222222222222222222222222222222222222222233",
"3322222333333333223322233322233323332222333332233333333322222233",
"3322222222333222223322233322233323332233322232222233322222222233",
"3322222222333222223332233332233223332233222222222233322222222233",
"3322222222333222223332232332233223332233322222222233322222222233",
"3322222222333222222332332332333223332233333332222233322222222233",
"3322222222333222222332332332333223332223333333222233322222222233",
"3322222222333222222333332233332223332222223333222233322222222233",
"3322222222333222222333322233332223332222222333222233322222222233",
"3322222222333222222333322233332223332232222333222233322222222233",
"3322222222333222222233322233332223332233333332222233322222222233",
"3322222222222222222222222222222222222222222222222222222222222233",
"3322222222222222222222222222222222222222222222222222222222222233",
"3322222222222222222222222222222222222222222222222222222222222233",
"3322222222222222222222222222222222222222222222222222222222222233",
"3322222222222222222222222222222222222222222222222222222222222233",
"3322222222222222222222222222222222222222222222222222222222222233",
"3322222222222222222222222222222222222222222222222222222222222233",
"3322222222222222222222222222222222222222222222222222222222222233",
"  332222222222222222222222222222222222222222222222222222222233  ",
"  332222222222222222222222222222222222222222222222222222222233  ",
"    33333333333333333333333333333333333333333333333333333333    ",
"    33333333333333333333333333333333333333333333333333333333    "
};
