/* XPM */
static char *Button_Enter_2_xpm[] = {
"128 64 4 1",
" 	c None",
"1	c #000000",
"2	c #000080",
"3	c #FFFFFF",
"                                                                                                                                ",
"                                                                                                                                ",
"                                                                                                                                ",
"                                                                                                                                ",
"                                                                                                                                ",
"                                                                                                                                ",
"                                                                                                                                ",
"                                                                                                                                ",
"            33333333333333333333333333333333333333333333333333333333333333333333333333333333333333333333333333333333            ",
"            33333333333333333333333333333333333333333333333333333333333333333333333333333333333333333333333333333333            ",
"          333333333333333333333333333333333333333333333333333333333333333333333333333333333333333333333333333333333333          ",
"          333333333333333333333333333333333333333333333333333333333333333333333333333333333333333333333333333333333333          ",
"        3333333333333333333333333333333333333333333333333333333333333333333333333333333333333333333333333333333333333333        ",
"        3333333333333333333333333333333333333333333333333333333333333333333333333333333333333333333333333333333333333333        ",
"        3333333333333333333333333333333333333333333333333333333333333333333333333333333333333333333333333333333333333333        ",
"        3333333333333333333333333333333333333333333333333333333333333333333333333333333333333333333333333333333333333333        ",
"        3333333333333333333333333333333333333333333333333333333333333333333333333333333333333333333333333333333333333333        ",
"        3333333333333333333333333333333333333333333333333333333333333333333333333333333333333333333333333333333333333333        ",
"        3333333333333333333333333333333333333333333333333333333333333333333333333333333333333333333333333333333333333333        ",
"        3333333333333333333333333333333333333333333333333333333333333333333333333333333333333333333333333333333333333333        ",
"        3333333333333333333333333333333333333333333333333333333333333333333333333333333333333333333333333333333333333333        ",
"        3333333322222222222222333322222233333332222233322222222222222222233222222222222223333222222222222333333333333333        ",
"        3333333322222222222222333322222223333332222233322222222222222222233222222222222223333222222222222223333333333333        ",
"        3333333322222222222222333322222223333332222233322222222222222222233222222222222223333222222222222222333333333333        ",
"        3333333322222233333333333322222222333332222233333333332222233333333222222333333333333222222333322222333333333333        ",
"        3333333322222233333333333322222222333332222233333333332222233333333222222333333333333222222333322222233333333333        ",
"        3333333322222233333333333322222222233332222233333333332222233333333222222333333333333222222333332222233333333333        ",
"        3333333322222233333333333322222222223332222233333333332222233333333222222333333333333222222333332222233333333333        ",
"        3333333322222233333333333322222322223332222233333333332222233333333222222333333333333222222333322222333333333333        ",
"        3333333322222222222222333322222322222332222233333333332222233333333222222222222223333222222333322222333333333333        ",
"        3333333322222222222222333322222332222332222233333333332222233333333222222222222223333222222222222223333333333333        ",
"        3333333322222222222222333322222332222232222233333333332222233333333222222222222223333222222222222233333333333333        ",
"        3333333322222233333333333322222333222232222233333333332222233333333222222333333333333222222222222223333333333333        ",
"        3333333322222233333333333322222333322222222233333333332222233333333222222333333333333222222333222222333333333333        ",
"        3333333322222233333333333322222333322222222233333333332222233333333222222333333333333222222333322222333333333333        ",
"        3333333322222233333333333322222333332222222233333333332222233333333222222333333333333222222333322222233333333333        ",
"        3333333322222233333333333322222333332222222233333333332222233333333222222333333333333222222333332222233333333333        ",
"        3333333322222233333333333322222333333222222233333333332222233333333222222333333333333222222333332222223333333333        ",
"        3333333322222222222222333322222333333222222233333333332222233333333222222222222223333222222333333222223333333333        ",
"        3333333322222222222222333322222333333322222233333333332222233333333222222222222223333222222333333222222333333333        ",
"        3333333322222222222222333322222333333322222233333333332222233333333222222222222223333222222333333322222333333333        ",
"        3333333333333333333333333333333333333333333333333333333333333333333333333333333333333333333333333333333333333333        ",
"        3333333333333333333333333333333333333333333333333333333333333333333333333333333333333333333333333333333333333333        ",
"        3333333333333333333333333333333333333333333333333333333333333333333333333333333333333333333333333333333333333333        ",
"        3333333333333333333333333333333333333333333333333333333333333333333333333333333333333333333333333333333333333333        ",
"        3333333333333333333333333333333333333333333333333333333333333333333333333333333333333333333333333333333333333333        ",
"        3333333333333333333333333333333333333333333333333333333333333333333333333333333333333333333333333333333333333333        ",
"        3333333333333333333333333333333333333333333333333333333333333333333333333333333333333333333333333333333333333333        ",
"        3333333333333333333333333333333333333333333333333333333333333333333333333333333333333333333333333333333333333333        ",
"        3333333333333333333333333333333333333333333333333333333333333333333333333333333333333333333333333333333333333333        ",
"        3333333333333333333333333333333333333333333333333333333333333333333333333333333333333333333333333333333333333333        ",
"        3333333333333333333333333333333333333333333333333333333333333333333333333333333333333333333333333333333333333333        ",
"          333333333333333333333333333333333333333333333333333333333333333333333333333333333333333333333333333333333333          ",
"          333333333333333333333333333333333333333333333333333333333333333333333333333333333333333333333333333333333333          ",
"            33333333333333333333333333333333333333333333333333333333333333333333333333333333333333333333333333333333            ",
"            33333333333333333333333333333333333333333333333333333333333333333333333333333333333333333333333333333333            ",
"                                                                                                                                ",
"                                                                                                                                ",
"                                                                                                                                ",
"                                                                                                                                ",
"                                                                                                                                ",
"                                                                                                                                ",
"                                                                                                                                ",
"                                                                                                                                "
};
