/* XPM */
static char *Clear_xpm[] = {
"64 32 4 1",
" 	c None",
"1	c #000000",
"2	c #000080",
"3	c #FFFFFF",
"    33333333333333333333333333333333333333333333333333333333    ",
"    33333333333333333333333333333333333333333333333333333333    ",
"  333333333333333333333333333333333333333333333333333333333333  ",
"  333333333333333333333333333333333333333333333333333333333333  ",
"3333333333333333333333333333333333333333333333333333333333333333",
"3333333333333333333333333333333333333333333333333333333333333333",
"3333333333333333333333333333333333333333333333333333333333333333",
"3333333333333333333333333333333333333333333333333333333333333333",
"3333333333333333333333333333333333333333333333333333333333333333",
"3333333333333333333333333333333333333333333333333333333333333333",
"3333333333222223322233333322222223333332223333322222223333333333",
"3333333322233323322233333322233333333322222333322233222333333333",
"3333333222333333322233333322233333333322222333322233322333333333",
"3333333222333333322233333322233333333322322333322233322333333333",
"3333333223333333322233333322222223333222322233322233222333333333",
"3333333223333333322233333322233333333223332233322222223333333333",
"3333333222333333322233333322233333332222222233322233222333333333",
"3333333222333333322233333322233333332233333223322233322333333333",
"3333333322233333322233333322233333332233333223322233322233333333",
"3333333333222223322222222322222222322233333222322233322233333333",
"3333333333333333333333333333333333333333333333333333333333333333",
"3333333333333333333333333333333333333333333333333333333333333333",
"3333333333333333333333333333333333333333333333333333333333333333",
"3333333333333333333333333333333333333333333333333333333333333333",
"3333333333333333333333333333333333333333333333333333333333333333",
"3333333333333333333333333333333333333333333333333333333333333333",
"3333333333333333333333333333333333333333333333333333333333333333",
"3333333333333333333333333333333333333333333333333333333333333333",
"  333333333333333333333333333333333333333333333333333333333333  ",
"  333333333333333333333333333333333333333333333333333333333333  ",
"    33333333333333333333333333333333333333333333333333333333    ",
"    33333333333333333333333333333333333333333333333333333333    "
};
