/* XPM */
static char *ButtonDown_Clear_xpm[] = {
"64 32 4 1",
" 	c None",
"1	c #000000",
"2	c #000080",
"3	c #FFFFFF",
"    33333333333333333333333333333333333333333333333333333333    ",
"    33333333333333333333333333333333333333333333333333333333    ",
"  332222222222222222222222222222222222222222222222222222222233  ",
"  332222222222222222222222222222222222222222222222222222222233  ",
"3322222222222222222222222222222222222222222222222222222222222233",
"3322222222222222222222222222222222222222222222222222222222222233",
"3322222222222222222222222222222222222222222222222222222222222233",
"3322222222222222222222222222222222222222222222222222222222222233",
"3322222222222222222222222222222222222222222222222222222222222233",
"3322222222222222222222222222222222222222222222222222222222222233",
"3322222222333332233322222233333332222223332222233333332222222233",
"3322222233322232233322222233322222222233333222233322333222222233",
"3322222333222222233322222233322222222233333222233322233222222233",
"3322222333222222233322222233322222222233233222233322233222222233",
"3322222332222222233322222233333332222333233322233322333222222233",
"3322222332222222233322222233322222222332223322233333332222222233",
"3322222333222222233322222233322222223333333322233322333222222233",
"3322222333222222233322222233322222223322222332233322233222222233",
"3322222233322222233322222233322222223322222332233322233322222233",
"3322222222333332233333333233333333233322222333233322233322222233",
"3322222222222222222222222222222222222222222222222222222222222233",
"3322222222222222222222222222222222222222222222222222222222222233",
"3322222222222222222222222222222222222222222222222222222222222233",
"3322222222222222222222222222222222222222222222222222222222222233",
"3322222222222222222222222222222222222222222222222222222222222233",
"3322222222222222222222222222222222222222222222222222222222222233",
"3322222222222222222222222222222222222222222222222222222222222233",
"3322222222222222222222222222222222222222222222222222222222222233",
"  332222222222222222222222222222222222222222222222222222222233  ",
"  332222222222222222222222222222222222222222222222222222222233  ",
"    33333333333333333333333333333333333333333333333333333333    ",
"    33333333333333333333333333333333333333333333333333333333    "
};
