/* XPM */
static char *Button_Twist_2_xpm[] = {
"128 64 4 1",
" 	c None",
"1	c #000000",
"2	c #000080",
"3	c #FFFFFF",
"                                                                                                                                ",
"                                                                                                                                ",
"                                                                                                                                ",
"                                                                                                                                ",
"                                                                                                                                ",
"                                                                                                                                ",
"                                                                                                                                ",
"                                                                                                                                ",
"            33333333333333333333333333333333333333333333333333333333333333333333333333333333333333333333333333333333            ",
"            33333333333333333333333333333333333333333333333333333333333333333333333333333333333333333333333333333333            ",
"          333333333333333333333333333333333333333333333333333333333333333333333333333333333333333333333333333333333333          ",
"          333333333333333333333333333333333333333333333333333333333333333333333333333333333333333333333333333333333333          ",
"        3333333333333333333333333333333333333333333333333333333333333333333333333333333333333333333333333333333333333333        ",
"        3333333333333333333333333333333333333333333333333333333333333333333333333333333333333333333333333333333333333333        ",
"        3333333333333333333333333333333333333333333333333333333333333333333333333333333333333333333333333333333333333333        ",
"        3333333333333333333333333333333333333333333333333333333333333333333333333333333333333333333333333333333333333333        ",
"        3333333333333333333333333333333333333333333333333333333333333333333333333333333333333333333333333333333333333333        ",
"        3333333333333333333333333333333333333333333333333333333333333333333333333333333333333333333333333333333333333333        ",
"        3333333333333333333333333333333333333333333333333333333333333333333333333333333333333333333333333333333333333333        ",
"        3333333333333333333333333333333333333333333333333333333333333333333333333333333333333333333333333333333333333333        ",
"        3333333333333333333333333333333333333333333333333333333333333333333333333333333333333333333333333333333333333333        ",
"        3333333322222222222222222232222233333322222333333322222333222222333333332222222233333222222222222222222333333333        ",
"        3333333322222222222222222232222233333322222233333322222333222222333333222222222222333222222222222222222333333333        ",
"        3333333322222222222222222232222233333322222233333322223333222222333332222222222222333222222222222222222333333333        ",
"        3333333333333332222233333333222233333322222233333222223333222222333322222233333222333333333322222333333333333333        ",
"        3333333333333332222233333333222223333222222233333222223333222222333322222333333332333333333322222333333333333333        ",
"        3333333333333332222233333333222223333222222223333222223333222222333322222333333333333333333322222333333333333333        ",
"        3333333333333332222233333333222223333222322223333222233333222222333322222333333333333333333322222333333333333333        ",
"        3333333333333332222233333333322223333222332223332222233333222222333322222223333333333333333322222333333333333333        ",
"        3333333333333332222233333333322222332222332223332222233333222222333322222222222333333333333322222333333333333333        ",
"        3333333333333332222233333333322222332222332222332222233333222222333332222222222223333333333322222333333333333333        ",
"        3333333333333332222233333333322222332222332222332222233333222222333333222222222222333333333322222333333333333333        ",
"        3333333333333332222233333333322222332223332222322222333333222222333333332222222222233333333322222333333333333333        ",
"        3333333333333332222233333333332222232223333222322222333333222222333333333333222222233333333322222333333333333333        ",
"        3333333333333332222233333333332222222223333222222222333333222222333333333333332222233333333322222333333333333333        ",
"        3333333333333332222233333333332222222223333222222222333333222222333333333333333222233333333322222333333333333333        ",
"        3333333333333332222233333333332222222233333222222223333333222222333323333333332222233333333322222333333333333333        ",
"        3333333333333332222233333333333222222233333322222223333333222222333322223333322222233333333322222333333333333333        ",
"        3333333333333332222233333333333222222233333322222223333333222222333322222222222222333333333322222333333333333333        ",
"        3333333333333332222233333333333222222233333322222223333333222222333322222222222223333333333322222333333333333333        ",
"        3333333333333332222233333333333222222333333322222233333333222222333333322222222333333333333322222333333333333333        ",
"        3333333333333333333333333333333333333333333333333333333333333333333333333333333333333333333333333333333333333333        ",
"        3333333333333333333333333333333333333333333333333333333333333333333333333333333333333333333333333333333333333333        ",
"        3333333333333333333333333333333333333333333333333333333333333333333333333333333333333333333333333333333333333333        ",
"        3333333333333333333333333333333333333333333333333333333333333333333333333333333333333333333333333333333333333333        ",
"        3333333333333333333333333333333333333333333333333333333333333333333333333333333333333333333333333333333333333333        ",
"        3333333333333333333333333333333333333333333333333333333333333333333333333333333333333333333333333333333333333333        ",
"        3333333333333333333333333333333333333333333333333333333333333333333333333333333333333333333333333333333333333333        ",
"        3333333333333333333333333333333333333333333333333333333333333333333333333333333333333333333333333333333333333333        ",
"        3333333333333333333333333333333333333333333333333333333333333333333333333333333333333333333333333333333333333333        ",
"        3333333333333333333333333333333333333333333333333333333333333333333333333333333333333333333333333333333333333333        ",
"        3333333333333333333333333333333333333333333333333333333333333333333333333333333333333333333333333333333333333333        ",
"          333333333333333333333333333333333333333333333333333333333333333333333333333333333333333333333333333333333333          ",
"          333333333333333333333333333333333333333333333333333333333333333333333333333333333333333333333333333333333333          ",
"            33333333333333333333333333333333333333333333333333333333333333333333333333333333333333333333333333333333            ",
"            33333333333333333333333333333333333333333333333333333333333333333333333333333333333333333333333333333333            ",
"                                                                                                                                ",
"                                                                                                                                ",
"                                                                                                                                ",
"                                                                                                                                ",
"                                                                                                                                ",
"                                                                                                                                ",
"                                                                                                                                ",
"                                                                                                                                "
};
