/* XPM */
static char *ButtonDown_LastWord_xpm[] = {
"64 32 4 1",
" 	c None",
"1	c #000000",
"2	c #000080",
"3	c #FFFFFF",
"    33333333333333333333333333333333333333333333333333333333    ",
"    33333333333333333333333333333333333333333333333333333333    ",
"  332222222222222222222222222222222222222222222222222222222233  ",
"  332222222222222222222222222222222222222222222222222222222233  ",
"3322222222222222222222222222222222222222222222222222222222222233",
"3322222222222333222222222333222222233333223333333332222222222233",
"3322222222222333222222223333322223332223222223332222222222222233",
"3322222222222333222222223333322223322222222223332222222222222233",
"3322222222222333222222223323322223332222222223332222222222222233",
"3322222222222333222222233323332223333333222223332222222222222233",
"3322222222222333222222233222332222333333322223332222222222222233",
"3322222222222333222222333333332222222333322223332222222222222233",
"3322222222222333222222332222233222222233322223332222222222222233",
"3322222222222333222222332222233223222233322223332222222222222233",
"3322222222222333333333332222233323333333222223332222222222222233",
"3322222222222222222222222222222222222222222222222222222222222233",
"3322222222222222222222222222222222222222222222222222222222222233",
"3322222233222333222333222333333222233333332222333333322222222233",
"3322222233222333222333223332233322233322333222333222332222222233",
"3322222233322333322332233322223332233322233222333222233222222233",
"3322222233322323322332233322223332233322233222333222233322222233",
"3322222223323323323332233222223332233322333222333222233322222233",
"3322222223323323323332233222223332233333332222333222233322222233",
"3322222223333322333322233322223332233322333222333222233322222233",
"3322222223333222333322233322223332233322233222333222233222222233",
"3322222223333222333322223332233322233322233322333222332222222233",
"3322222222333222333322222333333222233322233322333333322222222233",
"3322222222222222222222222222222222222222222222222222222222222233",
"  332222222222222222222222222222222222222222222222222222222233  ",
"  332222222222222222222222222222222222222222222222222222222233  ",
"    33333333333333333333333333333333333333333333333333333333    ",
"    33333333333333333333333333333333333333333333333333333333    "
};
