/* XPM */
static char *F_xpm[] = {
"32 32 4 1",
" 	c None",
"1	c #000000",
"2	c #000080",
"3	c #FFFFFF",
"                                ",
"                                ",
"                                ",
"                                ",
"                                ",
"                                ",
"         22222222222222         ",
"         22222222222222         ",
"         22222222222222         ",
"         222222                 ",
"         222222                 ",
"         222222                 ",
"         222222                 ",
"         222222                 ",
"         22222222222222         ",
"         22222222222222         ",
"         22222222222222         ",
"         222222                 ",
"         222222                 ",
"         222222                 ",
"         222222                 ",
"         222222                 ",
"         222222                 ",
"         222222                 ",
"         222222                 ",
"         222222                 ",
"                                ",
"                                ",
"                                ",
"                                ",
"                                ",
"                                "
};
