/* XPM */
static char *M_xpm[] = {
"32 32 4 1",
" 	c None",
"1	c #000000",
"2	c #000080",
"3	c #FFFFFF",
"                                ",
"                                ",
"                                ",
"                                ",
"                                ",
"                                ",
"     2222222         222222     ",
"     22222222       2222222     ",
"     22222222       2222222     ",
"     22222222      22222222     ",
"     222222222     22222222     ",
"     222222222     22222222     ",
"     22222 2222   222222222     ",
"     22222 2222   2222 2222     ",
"     22222  2222 2222  2222     ",
"     22222  2222 2222  2222     ",
"     22222  22222222   2222     ",
"     22222   2222222   2222     ",
"     22222   2222222   2222     ",
"     22222    22222    2222     ",
"     22222    22222    2222     ",
"     22222     222     2222     ",
"     22222             2222     ",
"     22222             2222     ",
"     22222             2222     ",
"     22222             2222     ",
"                                ",
"                                ",
"                                ",
"                                ",
"                                ",
"                                "
};
