/* XPM */
static char *T_xpm[] = {
"32 32 4 1",
" 	c None",
"1	c #000000",
"2	c #000080",
"3	c #FFFFFF",
"                                ",
"                                ",
"                                ",
"                                ",
"                                ",
"                                ",
"       222222222222222222       ",
"       222222222222222222       ",
"       222222222222222222       ",
"              22222             ",
"              22222             ",
"              22222             ",
"              22222             ",
"              22222             ",
"              22222             ",
"              22222             ",
"              22222             ",
"              22222             ",
"              22222             ",
"              22222             ",
"              22222             ",
"              22222             ",
"              22222             ",
"              22222             ",
"              22222             ",
"              22222             ",
"                                ",
"                                ",
"                                ",
"                                ",
"                                ",
"                                "
};
