/* XPM */
static char *Time_xpm[] = {
"128 32 4 1",
" 	c None",
"1	c #000000",
"2	c #000080",
"3	c #FFFFFF",
"                                                                                                                                ",
"                                                                                                                                ",
"                                                                                                                                ",
"                                                                                                                                ",
"                                                                                                                                ",
"                                                                                                                                ",
"                           333333333333333333  333333    3333333         333333     33333333333333                              ",
"                           333333333333333333  333333    33333333       3333333     33333333333333                              ",
"                           333333333333333333  333333    33333333       3333333     33333333333333                              ",
"                                  33333        333333    33333333      33333333     333333                                      ",
"                                  33333        333333    333333333     33333333     333333                                      ",
"                                  33333        333333    333333333     33333333     333333                                      ",
"                                  33333        333333    33333 3333   333333333     333333                                      ",
"                                  33333        333333    33333 3333   3333 3333     333333                                      ",
"                                  33333        333333    33333  3333 3333  3333     33333333333333                              ",
"                                  33333        333333    33333  3333 3333  3333     33333333333333                              ",
"                                  33333        333333    33333  33333333   3333     33333333333333                              ",
"                                  33333        333333    33333   3333333   3333     333333                                      ",
"                                  33333        333333    33333   3333333   3333     333333                                      ",
"                                  33333        333333    33333    33333    3333     333333                                      ",
"                                  33333        333333    33333    33333    3333     333333                                      ",
"                                  33333        333333    33333     333     3333     333333                                      ",
"                                  33333        333333    33333             3333     333333                                      ",
"                                  33333        333333    33333             3333     33333333333333                              ",
"                                  33333        333333    33333             3333     33333333333333                              ",
"                                  33333        333333    33333             3333     33333333333333                              ",
"                                                                                                                                ",
"                                                                                                                                ",
"                                                                                                                                ",
"                                                                                                                                ",
"                                                                                                                                ",
"                                                                                                                                "
};
