/* XPM */
static char *Title_xpm[] = {
"256 64 4 1",
" 	c None",
"1	c #000000",
"2	c #000080",
"3	c #FFFFFF",
"                                                                                                                                                                                                                                                                ",
"                                                                                                                                                                                                                                                                ",
"                                                                                                                                                                                                                                                                ",
"                                                                                                                                                                                                                                                                ",
"                                                                                                                                                                                                                                                                ",
"                                                                                                                                                                                                                                                                ",
"                                                                                                                                                                                                                                                                ",
"                                                                                                                                                                                                                                                                ",
"                                                                                                                                                                                                                                                                ",
"                                                                                                                                                                                                                                                                ",
"                                                                                                                                                                                                                                                                ",
"                                                                                                                                                                                                                                                                ",
"                                                                                                                                                                                                                                                                ",
"                                                                                                                                                                                                                                                                ",
"                                                                                                                                                                                                                                                                ",
"                                                                                                                                                                                                                                                                ",
"                                                                                                                                                                                                                                                                ",
"                                                                                                                                                                                                                                                                ",
"                                                                                                                                                                                                                                                                ",
"                                                                                                                                                                                                                                                                ",
"                                                                                                                                                                                                                                                                ",
"                                                                                                                                                                                                                                                                ",
"               3333333333333333                                       3333333333333333                     3333                               3333333            33333          3333333            33333             3333333      333333333333                  ",
"               3333333333333333                              33333    3333333333333333                     3333                  33333      33333333333        333333333      33333333333        333333333         33333333333    333333333333                  ",
"               3333333333333333                              33333    3333333333333333                     3333                  33333      333333333333      33333333333     333333333333      33333333333       333333333333    333333333333                  ",
"                     3333                                    33333          3333                           3333                  33333      333    33333     33333   3333     333    33333     33333   3333      333333     33    33333                         ",
"                     3333                                    33333          3333                                                 33333      3       3333     3333    33333    3       3333     3333    33333    33333        3    33333                         ",
"                     3333        333333      3333     3333333333333333      3333    3333    3333    3333   3333      3333333   33333333333          3333     3333     3333            3333     3333     3333    33333             33333                         ",
"                     3333      3333333333     3333   33333 33333333333      3333    3333    3333    3333   3333    3333333333  33333333333          3333    33333     3333            3333    33333     3333    3333              33333                         ",
"                     3333     333333333333    33333  3333  33333333333      3333     3333   3333    3333   3333   33333333333  33333333333          3333    33333     3333            3333    33333     3333   33333              333333333333                  ",
"                     3333     3333    3333     333333333     33333          3333     3333  333333  3333    3333   3333      3    33333             33333    33333     33333          33333    33333     33333  33333              333333333333                  ",
"                     3333    33333     3333     33333333     33333          3333     3333  333333  3333    3333   3333           33333            33333     33333     33333         33333     33333     33333  33333              333333333333                  ",
"                     3333    33333333333333      333333      33333          3333     3333  333333  3333    3333    33333333      33333           33333      33333     3333         33333      33333     3333   33333              33333                         ",
"                     3333    33333333333333      33333       33333          3333      3333 33  33  3333    3333    3333333333    33333          33333       33333     3333        33333       33333     3333    3333              33333                         ",
"                     3333    33333333333333     3333333      33333          3333      3333333  3333333     3333       33333333   33333         33333         3333     3333       33333         3333     3333    33333             33333                         ",
"                     3333    33333              33333333     33333          3333      3333333  3333333     3333           3333   33333        33333          3333    33333      33333          3333    33333    33333        3    33333                         ",
"                     3333     3333       3     3333 33333    33333          3333      3333333  3333333     3333   33      3333   33333      33333            33333   3333     33333            33333   3333      333333     33    33333                         ",
"                     3333     3333333333333   33333  3333     33333333      3333       333333   333333     3333   333333333333    33333333  3333333333333     33333333333     3333333333333     33333333333       333333333333    3333333333333                 ",
"                     3333      333333333333  33333    3333    33333333      3333       33333    33333      3333   33333333333     33333333  3333333333333      333333333      3333333333333      333333333         33333333333    3333333333333                 ",
"                     3333        33333333    3333     33333    3333333      3333       33333    33333      3333     33333333       3333333  3333333333333        33333        3333333333333        33333             3333333      3333333333333                 ",
"                                                                                                                                                                                                                                                                ",
"                                                                                                                                                                                                                                                                ",
"                                                                                                                                                                                                                                                                ",
"                                                                                                                                                                                                                                                                ",
"                                                                                                                                                                                                                                                                ",
"                                                                                                                                                                                                                                                                ",
"                                                                                                                                                                                                                                                                ",
"                                                                                                                                                                                                                                                                ",
"                                                                                                                                                                                                                                                                ",
"                                                                                                                                                                                                                                                                ",
"                                                                                                                                                                                                                                                                ",
"                                                                                                                                                                                                                                                                ",
"                                                                                                                                                                                                                                                                ",
"                                                                                                                                                                                                                                                                ",
"                                                                                                                                                                                                                                                                ",
"                                                                                                                                                                                                                                                                ",
"                                                                                                                                                                                                                                                                ",
"                                                                                                                                                                                                                                                                ",
"                                                                                                                                                                                                                                                                ",
"                                                                                                                                                                                                                                                                ",
"                                                                                                                                                                                                                                                                ",
"                                                                                                                                                                                                                                                                ",
"                                                                                                                                                                                                                                                                ",
"                                                                                                                                                                                                                                                                "
};
