/* XPM */
static char *X_xpm[] = {
"32 32 4 1",
" 	c None",
"1	c #000000",
"2	c #000080",
"3	c #FFFFFF",
"                                ",
"                                ",
"                                ",
"                                ",
"                                ",
"                                ",
"      22222        222222       ",
"       22222       22222        ",
"       222222     22222         ",
"        22222    222222         ",
"         22222   22222          ",
"         222222 22222           ",
"          22222222222           ",
"           222222222            ",
"           22222222             ",
"            2222222             ",
"            2222222             ",
"           222222222            ",
"           222222222            ",
"          22222222222           ",
"         222222 222222          ",
"         22222   22222          ",
"        22222     22222         ",
"       22222      222222        ",
"       22222       22222        ",
"      22222         22222       ",
"                                ",
"                                ",
"                                ",
"                                ",
"                                ",
"                                "
};
